<svg width="19" height="20" viewBox="0 0 19 20" fill="none" xmlns="http://www.w3.org/2000/svg">
<path d="M18.3637 8.12705L18.3636 8.12696L10.5505 1.0239C10.2635 0.761097 9.88849 0.615338 9.49936 0.615356C9.11024 0.615375 8.73524 0.761168 8.44829 1.02399L0.63636 8.12696C0.475451 8.27353 0.34687 8.45205 0.258823 8.6511C0.170776 8.85016 0.125199 9.06539 0.125 9.28305V18.3125C0.125474 18.7267 0.290246 19.1239 0.583169 19.4168C0.876092 19.7097 1.27324 19.8745 1.6875 19.875H17.3125C17.7268 19.8745 18.1239 19.7097 18.4168 19.4168C18.7098 19.1239 18.8745 18.7267 18.875 18.3125V9.2831C18.8748 9.06545 18.8292 8.85024 18.7412 8.65119C18.6532 8.45215 18.5246 8.27364 18.3637 8.12705Z" fill="#1A5BE1"/>
</svg>
