<svg width="19" height="22" viewBox="0 0 19 22" fill="none" xmlns="http://www.w3.org/2000/svg">
<path d="M16.5312 2.12555H14.9688V1.3443C14.9688 1.1371 14.8864 0.938385 14.7399 0.791872C14.5934 0.64536 14.3947 0.563049 14.1875 0.563049C13.9803 0.563049 13.7816 0.64536 13.6351 0.791872C13.4886 0.938385 13.4062 1.1371 13.4062 1.3443V2.12555H10.2812V1.3443C10.2812 1.1371 10.1989 0.938385 10.0524 0.791872C9.90592 0.64536 9.7072 0.563049 9.5 0.563049C9.2928 0.563049 9.09409 0.64536 8.94757 0.791872C8.80106 0.938385 8.71875 1.1371 8.71875 1.3443V2.12555H5.59375V1.3443C5.59375 1.1371 5.51144 0.938385 5.36493 0.791872C5.21841 0.64536 5.0197 0.563049 4.8125 0.563049C4.6053 0.563049 4.40659 0.64536 4.26007 0.791872C4.11356 0.938385 4.03125 1.1371 4.03125 1.3443V2.12555H2.46875C2.05449 2.12602 1.65734 2.2908 1.36442 2.58372C1.0715 2.87664 0.906724 3.27379 0.90625 3.68805V18.5318C0.907198 19.3603 1.23674 20.1546 1.82259 20.7405C2.40843 21.3263 3.20274 21.6559 4.03125 21.6568H14.9688C15.7973 21.6559 16.5916 21.3263 17.1774 20.7405C17.7633 20.1546 18.0928 19.3603 18.0938 18.5318V3.68805C18.0933 3.27379 17.9285 2.87664 17.6356 2.58372C17.3427 2.2908 16.9455 2.12602 16.5312 2.12555ZM12.625 15.4068H6.375C6.1678 15.4068 5.96909 15.3245 5.82257 15.178C5.67606 15.0315 5.59375 14.8327 5.59375 14.6255C5.59375 14.4183 5.67606 14.2196 5.82257 14.0731C5.96909 13.9266 6.1678 13.8443 6.375 13.8443H12.625C12.8322 13.8443 13.0309 13.9266 13.1774 14.0731C13.3239 14.2196 13.4062 14.4183 13.4062 14.6255C13.4062 14.8327 13.3239 15.0315 13.1774 15.178C13.0309 15.3245 12.8322 15.4068 12.625 15.4068ZM12.625 12.2818H6.375C6.1678 12.2818 5.96909 12.1995 5.82257 12.053C5.67606 11.9065 5.59375 11.7077 5.59375 11.5005C5.59375 11.2933 5.67606 11.0946 5.82257 10.9481C5.96909 10.8016 6.1678 10.7193 6.375 10.7193H12.625C12.8322 10.7193 13.0309 10.8016 13.1774 10.9481C13.3239 11.0946 13.4062 11.2933 13.4062 11.5005C13.4062 11.7077 13.3239 11.9065 13.1774 12.053C13.0309 12.1995 12.8322 12.2818 12.625 12.2818Z" fill="#EDEDED"/>
</svg>
